<svg width="900" height="600" xmlns="http://www.w3.org/2000/svg" xmlns:xlink="http://www.w3.org/1999/xlink" version="1.1" baseProfile="full" viewBox="0 0 900 600">\n<rect width="900" height="600" x="0" y="0" id="0" fill="none" fill-opacity="1"></rect>\n<path d="M65.2 562.5L864 562.5" fill="none" stroke="#E0E6F1"></path>\n<path d="M65.2 478.5L864 478.5" fill="none" stroke="#E0E6F1"></path>\n<path d="M65.2 394.5L864 394.5" fill="none" stroke="#E0E6F1"></path>\n<path d="M65.2 311.5L864 311.5" fill="none" stroke="#E0E6F1"></path>\n<path d="M65.2 227.5L864 227.5" fill="none" stroke="#E0E6F1"></path>\n<path d="M65.2 143.5L864 143.5" fill="none" stroke="#E0E6F1"></path>\n<path d="M65.2 60.5L864 60.5" fill="none" stroke="#E0E6F1"></path>\n<path d="M65.2 562.5L864 562.5" fill="none" stroke="#6E7079" stroke-linecap="round"></path>\n<path d="M65.5 562L65.5 567" fill="none" stroke="#6E7079"></path>\n<path d="M179.5 562L179.5 567" fill="none" stroke="#6E7079"></path>\n<path d="M293.5 562L293.5 567" fill="none" stroke="#6E7079"></path>\n<path d="M407.5 562L407.5 567" fill="none" stroke="#6E7079"></path>\n<path d="M521.5 562L521.5 567" fill="none" stroke="#6E7079"></path>\n<path d="M636.5 562L636.5 567" fill="none" stroke="#6E7079"></path>\n<path d="M750.5 562L750.5 567" fill="none" stroke="#6E7079"></path>\n<path d="M864.5 562L864.5 567" fill="none" stroke="#6E7079"></path>\n<text dominant-baseline="central" text-anchor="end" style="font-size:12px;font-family:sans-serif;" transform="translate(57.24 562)" fill="#6E7079">0</text>\n<text dominant-baseline="central" text-anchor="end" style="font-size:12px;font-family:sans-serif;" transform="translate(57.24 478.3333)" fill="#6E7079">300</text>\n<text dominant-baseline="central" text-anchor="end" style="font-size:12px;font-family:sans-serif;" transform="translate(57.24 394.6667)" fill="#6E7079">600</text>\n<text dominant-baseline="central" text-anchor="end" style="font-size:12px;font-family:sans-serif;" transform="translate(57.24 311)" fill="#6E7079">900</text>\n<text dominant-baseline="central" text-anchor="end" style="font-size:12px;font-family:sans-serif;" transform="translate(57.24 227.3333)" fill="#6E7079">1,200</text>\n<text dominant-baseline="central" text-anchor="end" style="font-size:12px;font-family:sans-serif;" transform="translate(57.24 143.6667)" fill="#6E7079">1,500</text>\n<text dominant-baseline="central" text-anchor="end" style="font-size:12px;font-family:sans-serif;" transform="translate(57.24 60)" fill="#6E7079">1,800</text>\n<text dominant-baseline="central" text-anchor="middle" style="font-size:12px;font-family:sans-serif;" y="6" transform="translate(122.2943 570)" fill="#6E7079">Mon</text>\n<text dominant-baseline="central" text-anchor="middle" style="font-size:12px;font-family:sans-serif;" y="6" transform="translate(236.4029 570)" fill="#6E7079">Tue</text>\n<text dominant-baseline="central" text-anchor="middle" style="font-size:12px;font-family:sans-serif;" y="6" transform="translate(350.5114 570)" fill="#6E7079">Wed</text>\n<text dominant-baseline="central" text-anchor="middle" style="font-size:12px;font-family:sans-serif;" y="6" transform="translate(464.62 570)" fill="#6E7079">Thu</text>\n<text dominant-baseline="central" text-anchor="middle" style="font-size:12px;font-family:sans-serif;" y="6" transform="translate(578.7286 570)" fill="#6E7079">Fri</text>\n<text dominant-baseline="central" text-anchor="middle" style="font-size:12px;font-family:sans-serif;" y="6" transform="translate(692.8371 570)" fill="#6E7079">Sat</text>\n<text dominant-baseline="central" text-anchor="middle" style="font-size:12px;font-family:sans-serif;" y="6" transform="translate(806.9457 570)" fill="#6E7079">Sun</text>\n<path d="M76.7 562l23.9 0l0 -89.2l-23.9 0Z" fill="#5470c6" class="zr0-cls-0"></path>\n<path d="M190.8 562l23.9 0l0 -92.6l-23.9 0Z" fill="#5470c6" class="zr0-cls-1"></path>\n<path d="M304.9 562l23.9 0l0 -83.9l-23.9 0Z" fill="#5470c6" class="zr0-cls-2"></path>\n<path d="M419 562l23.9 0l0 -93.1l-23.9 0Z" fill="#5470c6" class="zr0-cls-3"></path>\n<path d="M533.1 562l23.9 0l0 -108.8l-23.9 0Z" fill="#5470c6" class="zr0-cls-4"></path>\n<path d="M647.2 562l23.9 0l0 -92l-23.9 0Z" fill="#5470c6" class="zr0-cls-5"></path>\n<path d="M761.3 562l23.9 0l0 -89.2l-23.9 0Z" fill="#5470c6" class="zr0-cls-6"></path>\n<path d="M105.4 562l23.9 0l0 -33.5l-23.9 0Z" fill="#91cc75" class="zr0-cls-7"></path>\n<path d="M219.5 562l23.9 0l0 -36.8l-23.9 0Z" fill="#91cc75" class="zr0-cls-8"></path>\n<path d="M333.6 562l23.9 0l0 -28.2l-23.9 0Z" fill="#91cc75" class="zr0-cls-9"></path>\n<path d="M447.8 562l23.9 0l0 -37.4l-23.9 0Z" fill="#91cc75" class="zr0-cls-10"></path>\n<path d="M561.9 562l23.9 0l0 -25.1l-23.9 0Z" fill="#91cc75" class="zr0-cls-11"></path>\n<path d="M676 562l23.9 0l0 -64.1l-23.9 0Z" fill="#91cc75" class="zr0-cls-12"></path>\n<path d="M790.1 562l23.9 0l0 -58.6l-23.9 0Z" fill="#91cc75" class="zr0-cls-13"></path>\n<path d="M105.4 528.5l23.9 0l0 -61.4l-23.9 0Z" fill="#fac858" class="zr0-cls-14"></path>\n<path d="M219.5 525.2l23.9 0l0 -50.8l-23.9 0Z" fill="#fac858" class="zr0-cls-15"></path>\n<path d="M333.6 533.8l23.9 0l0 -53.3l-23.9 0Z" fill="#fac858" class="zr0-cls-16"></path>\n<path d="M447.8 524.6l23.9 0l0 -65.3l-23.9 0Z" fill="#fac858" class="zr0-cls-17"></path>\n<path d="M561.9 536.9l23.9 0l0 -80.9l-23.9 0Z" fill="#fac858" class="zr0-cls-18"></path>\n<path d="M676 497.9l23.9 0l0 -92l-23.9 0Z" fill="#fac858" class="zr0-cls-19"></path>\n<path d="M790.1 503.4l23.9 0l0 -86.5l-23.9 0Z" fill="#fac858" class="zr0-cls-20"></path>\n<path d="M105.4 467.2l23.9 0l0 -41.8l-23.9 0Z" fill="#ee6666" class="zr0-cls-21"></path>\n<path d="M219.5 474.4l23.9 0l0 -64.7l-23.9 0Z" fill="#ee6666" class="zr0-cls-22"></path>\n<path d="M333.6 480.6l23.9 0l0 -56.1l-23.9 0Z" fill="#ee6666" class="zr0-cls-23"></path>\n<path d="M447.8 459.4l23.9 0l0 -42.9l-23.9 0Z" fill="#ee6666" class="zr0-cls-24"></path>\n<path d="M561.9 456l23.9 0l0 -53l-23.9 0Z" fill="#ee6666" class="zr0-cls-25"></path>\n<path d="M676 405.8l23.9 0l0 -92l-23.9 0Z" fill="#ee6666" class="zr0-cls-26"></path>\n<path d="M790.1 417l23.9 0l0 -114.3l-23.9 0Z" fill="#ee6666" class="zr0-cls-27"></path>\n<path d="M134.2 562l23.9 0l0 -240.4l-23.9 0Z" fill="#73c0de" class="zr0-cls-28"></path>\n<path d="M248.3 562l23.9 0l0 -283.9l-23.9 0Z" fill="#73c0de" class="zr0-cls-29"></path>\n<path d="M362.4 562l23.9 0l0 -268.8l-23.9 0Z" fill="#73c0de" class="zr0-cls-30"></path>\n<path d="M476.5 562l23.9 0l0 -286.1l-23.9 0Z" fill="#73c0de" class="zr0-cls-31"></path>\n<path d="M590.6 562l23.9 0l0 -468.3l-23.9 0Z" fill="#73c0de" class="zr0-cls-32"></path>\n<path d="M704.7 562l23.9 0l0 -446.2l-23.9 0Z" fill="#73c0de" class="zr0-cls-33"></path>\n<path d="M818.8 562l23.9 0l0 -437.9l-23.9 0Z" fill="#73c0de" class="zr0-cls-34"></path>\n<path d="M162.9 562l5 0l0 -172.9l-5 0Z" fill="#3ba272" class="zr0-cls-35"></path>\n<path d="M277 562l5 0l0 -204.1l-5 0Z" fill="#3ba272" class="zr0-cls-36"></path>\n<path d="M391.1 562l5 0l0 -195.5l-5 0Z" fill="#3ba272" class="zr0-cls-37"></path>\n<path d="M505.2 562l5 0l0 -204.7l-5 0Z" fill="#3ba272" class="zr0-cls-38"></path>\n<path d="M619.3 562l5 0l0 -304l-5 0Z" fill="#3ba272" class="zr0-cls-39"></path>\n<path d="M733.4 562l5 0l0 -315.1l-5 0Z" fill="#3ba272" class="zr0-cls-40"></path>\n<path d="M847.6 562l5 0l0 -312.4l-5 0Z" fill="#3ba272" class="zr0-cls-41"></path>\n<path d="M162.9 389.1l5 0l0 -33.5l-5 0Z" fill="#fc8452" class="zr0-cls-42"></path>\n<path d="M277 357.9l5 0l0 -36.8l-5 0Z" fill="#fc8452" class="zr0-cls-43"></path>\n<path d="M391.1 366.5l5 0l0 -28.2l-5 0Z" fill="#fc8452" class="zr0-cls-44"></path>\n<path d="M505.2 357.3l5 0l0 -37.4l-5 0Z" fill="#fc8452" class="zr0-cls-45"></path>\n<path d="M619.3 258l5 0l0 -80.9l-5 0Z" fill="#fc8452" class="zr0-cls-46"></path>\n<path d="M733.4 246.9l5 0l0 -64.1l-5 0Z" fill="#fc8452" class="zr0-cls-47"></path>\n<path d="M847.6 249.6l5 0l0 -61.4l-5 0Z" fill="#fc8452" class="zr0-cls-48"></path>\n<path d="M162.9 355.6l5 0l0 -16.7l-5 0Z" fill="#9a60b4" class="zr0-cls-49"></path>\n<path d="M277 321l5 0l0 -20.1l-5 0Z" fill="#9a60b4" class="zr0-cls-50"></path>\n<path d="M391.1 338.3l5 0l0 -19.8l-5 0Z" fill="#9a60b4" class="zr0-cls-51"></path>\n<path d="M505.2 319.9l5 0l0 -20.6l-5 0Z" fill="#9a60b4" class="zr0-cls-52"></path>\n<path d="M619.3 177.1l5 0l0 -53l-5 0Z" fill="#9a60b4" class="zr0-cls-53"></path>\n<path d="M733.4 182.7l5 0l0 -36.3l-5 0Z" fill="#9a60b4" class="zr0-cls-54"></path>\n<path d="M847.6 188.3l5 0l0 -30.7l-5 0Z" fill="#9a60b4" class="zr0-cls-55"></path>\n<path d="M162.9 338.9l5 0l0 -17.3l-5 0Z" fill="#ea7ccc" class="zr0-cls-56"></path>\n<path d="M277 301l5 0l0 -22.9l-5 0Z" fill="#ea7ccc" class="zr0-cls-57"></path>\n<path d="M391.1 318.5l5 0l0 -25.4l-5 0Z" fill="#ea7ccc" class="zr0-cls-58"></path>\n<path d="M505.2 299.3l5 0l0 -23.4l-5 0Z" fill="#ea7ccc" class="zr0-cls-59"></path>\n<path d="M619.3 124.1l5 0l0 -30.4l-5 0Z" fill="#ea7ccc" class="zr0-cls-60"></path>\n<path d="M733.4 146.5l5 0l0 -30.7l-5 0Z" fill="#ea7ccc" class="zr0-cls-61"></path>\n<path d="M847.6 157.6l5 0l0 -33.5l-5 0Z" fill="#ea7ccc" class="zr0-cls-62"></path>\n<path d="M-5 -5l740.9 0l0 24l-740.9 0Z" transform="translate(84.56 5)" fill="rgb(0,0,0)" fill-opacity="0" stroke="#ccc" stroke-width="0"></path>\n<path d="M3.5 0L21.5 0A3.5 3.5 0 0 1 25 3.5L25 10.5A3.5 3.5 0 0 1 21.5 14L3.5 14A3.5 3.5 0 0 1 0 10.5L0 3.5A3.5 3.5 0 0 1 3.5 0" transform="translate(84.56 5)" fill="#5470c6"></path>\n<text dominant-baseline="central" text-anchor="start" style="font-size:12px;font-family:sans-serif;" x="30" y="7" transform="translate(84.56 5)" fill="#333">Direct</text>\n<path d="M3.5 0L21.5 0A3.5 3.5 0 0 1 25 3.5L25 10.5A3.5 3.5 0 0 1 21.5 14L3.5 14A3.5 3.5 0 0 1 0 10.5L0 3.5A3.5 3.5 0 0 1 3.5 0" transform="translate(155.88 5)" fill="#73c0de"></path>\n<text dominant-baseline="central" text-anchor="start" style="font-size:12px;font-family:sans-serif;" xml:space="preserve" x="30" y="7" transform="translate(155.88 5)" fill="#333">Search Engine</text>\n<path d="M3.5 0L21.5 0A3.5 3.5 0 0 1 25 3.5L25 10.5A3.5 3.5 0 0 1 21.5 14L3.5 14A3.5 3.5 0 0 1 0 10.5L0 3.5A3.5 3.5 0 0 1 3.5 0" transform="translate(274.96 5)" fill="#91cc75"></path>\n<text dominant-baseline="central" text-anchor="start" style="font-size:12px;font-family:sans-serif;" x="30" y="7" transform="translate(274.96 5)" fill="#333">Email</text>\n<path d="M3.5 0L21.5 0A3.5 3.5 0 0 1 25 3.5L25 10.5A3.5 3.5 0 0 1 21.5 14L3.5 14A3.5 3.5 0 0 1 0 10.5L0 3.5A3.5 3.5 0 0 1 3.5 0" transform="translate(344.96 5)" fill="#fac858"></path>\n<text dominant-baseline="central" text-anchor="start" style="font-size:12px;font-family:sans-serif;" xml:space="preserve" x="30" y="7" transform="translate(344.96 5)" fill="#333">Union Ads</text>\n<path d="M3.5 0L21.5 0A3.5 3.5 0 0 1 25 3.5L25 10.5A3.5 3.5 0 0 1 21.5 14L3.5 14A3.5 3.5 0 0 1 0 10.5L0 3.5A3.5 3.5 0 0 1 3.5 0" transform="translate(440.52 5)" fill="#ee6666"></path>\n<text dominant-baseline="central" text-anchor="start" style="font-size:12px;font-family:sans-serif;" xml:space="preserve" x="30" y="7" transform="translate(440.52 5)" fill="#333">Video Ads</text>\n<path d="M3.5 0L21.5 0A3.5 3.5 0 0 1 25 3.5L25 10.5A3.5 3.5 0 0 1 21.5 14L3.5 14A3.5 3.5 0 0 1 0 10.5L0 3.5A3.5 3.5 0 0 1 3.5 0" transform="translate(535.48 5)" fill="#3ba272"></path>\n<text dominant-baseline="central" text-anchor="start" style="font-size:12px;font-family:sans-serif;" x="30" y="7" transform="translate(535.48 5)" fill="#333">Baidu</text>\n<path d="M3.5 0L21.5 0A3.5 3.5 0 0 1 25 3.5L25 10.5A3.5 3.5 0 0 1 21.5 14L3.5 14A3.5 3.5 0 0 1 0 10.5L0 3.5A3.5 3.5 0 0 1 3.5 0" transform="translate(606.32 5)" fill="#fc8452"></path>\n<text dominant-baseline="central" text-anchor="start" style="font-size:12px;font-family:sans-serif;" x="30" y="7" transform="translate(606.32 5)" fill="#333">Google</text>\n<path d="M3.5 0L21.5 0A3.5 3.5 0 0 1 25 3.5L25 10.5A3.5 3.5 0 0 1 21.5 14L3.5 14A3.5 3.5 0 0 1 0 10.5L0 3.5A3.5 3.5 0 0 1 3.5 0" transform="translate(685.2 5)" fill="#9a60b4"></path>\n<text dominant-baseline="central" text-anchor="start" style="font-size:12px;font-family:sans-serif;" x="30" y="7" transform="translate(685.2 5)" fill="#333">Bing</text>\n<path d="M3.5 0L21.5 0A3.5 3.5 0 0 1 25 3.5L25 10.5A3.5 3.5 0 0 1 21.5 14L3.5 14A3.5 3.5 0 0 1 0 10.5L0 3.5A3.5 3.5 0 0 1 3.5 0" transform="translate(749.32 5)" fill="#ea7ccc"></path>\n<text dominant-baseline="central" text-anchor="start" style="font-size:12px;font-family:sans-serif;" x="30" y="7" transform="translate(749.32 5)" fill="#333">Others</text>\n<path d="M146.1 321.6L602.6 93.7" fill="none" stroke="#73c0de" stroke-dasharray="4,2"></path>\n<path d="M4 0A4 4 0 1 1 4 -0.0004" transform="matrix(-0.447,-0.895,0.895,-0.447,146.1386,321.5978)" fill="#73c0de"></path>\n<path d="M0 0L5.3 16L0 12L-5.3 16L0 0Z" transform="matrix(0.447,0.895,-0.895,0.447,602.5729,93.7456)" fill="#73c0de"></path>\n<text dominant-baseline="central" text-anchor="start" style="font-size:12px;font-family:sans-serif;" transform="translate(607.0465 91.5123)" fill="#333" stroke="rgb(255,255,255)" stroke-width="2" paint-order="stroke" stroke-miterlimit="2">862</text>\n<style >&lt;![CDATA[\n.zr0-cls-0 {\nanimation:zr0-ani-0 1s cubic-bezier(0.65,0,0.35,1) both;\n}\n.zr0-cls-1 {\nanimation:zr0-ani-1 1s cubic-bezier(0.65,0,0.35,1) both;\n}\n.zr0-cls-2 {\nanimation:zr0-ani-2 1s cubic-bezier(0.65,0,0.35,1) both;\n}\n.zr0-cls-3 {\nanimation:zr0-ani-3 1s cubic-bezier(0.65,0,0.35,1) both;\n}\n.zr0-cls-4 {\nanimation:zr0-ani-4 1s cubic-bezier(0.65,0,0.35,1) both;\n}\n.zr0-cls-5 {\nanimation:zr0-ani-5 1s cubic-bezier(0.65,0,0.35,1) both;\n}\n.zr0-cls-6 {\nanimation:zr0-ani-6 1s cubic-bezier(0.65,0,0.35,1) both;\n}\n.zr0-cls-7 {\nanimation:zr0-ani-7 1s cubic-bezier(0.65,0,0.35,1) both;\n}\n.zr0-cls-8 {\nanimation:zr0-ani-8 1s cubic-bezier(0.65,0,0.35,1) both;\n}\n.zr0-cls-9 {\nanimation:zr0-ani-9 1s cubic-bezier(0.65,0,0.35,1) both;\n}\n.zr0-cls-10 {\nanimation:zr0-ani-10 1s cubic-bezier(0.65,0,0.35,1) both;\n}\n.zr0-cls-11 {\nanimation:zr0-ani-11 1s cubic-bezier(0.65,0,0.35,1) both;\n}\n.zr0-cls-12 {\nanimation:zr0-ani-12 1s cubic-bezier(0.65,0,0.35,1) both;\n}\n.zr0-cls-13 {\nanimation:zr0-ani-13 1s cubic-bezier(0.65,0,0.35,1) both;\n}\n.zr0-cls-14 {\nanimation:zr0-ani-14 1s cubic-bezier(0.65,0,0.35,1) both;\n}\n.zr0-cls-15 {\nanimation:zr0-ani-15 1s cubic-bezier(0.65,0,0.35,1) both;\n}\n.zr0-cls-16 {\nanimation:zr0-ani-16 1s cubic-bezier(0.65,0,0.35,1) both;\n}\n.zr0-cls-17 {\nanimation:zr0-ani-17 1s cubic-bezier(0.65,0,0.35,1) both;\n}\n.zr0-cls-18 {\nanimation:zr0-ani-18 1s cubic-bezier(0.65,0,0.35,1) both;\n}\n.zr0-cls-19 {\nanimation:zr0-ani-19 1s cubic-bezier(0.65,0,0.35,1) both;\n}\n.zr0-cls-20 {\nanimation:zr0-ani-20 1s cubic-bezier(0.65,0,0.35,1) both;\n}\n.zr0-cls-21 {\nanimation:zr0-ani-21 1s cubic-bezier(0.65,0,0.35,1) both;\n}\n.zr0-cls-22 {\nanimation:zr0-ani-22 1s cubic-bezier(0.65,0,0.35,1) both;\n}\n.zr0-cls-23 {\nanimation:zr0-ani-23 1s cubic-bezier(0.65,0,0.35,1) both;\n}\n.zr0-cls-24 {\nanimation:zr0-ani-24 1s cubic-bezier(0.65,0,0.35,1) both;\n}\n.zr0-cls-25 {\nanimation:zr0-ani-25 1s cubic-bezier(0.65,0,0.35,1) both;\n}\n.zr0-cls-26 {\nanimation:zr0-ani-26 1s cubic-bezier(0.65,0,0.35,1) both;\n}\n.zr0-cls-27 {\nanimation:zr0-ani-27 1s cubic-bezier(0.65,0,0.35,1) both;\n}\n.zr0-cls-28 {\nanimation:zr0-ani-28 1s cubic-bezier(0.65,0,0.35,1) both;\n}\n.zr0-cls-29 {\nanimation:zr0-ani-29 1s cubic-bezier(0.65,0,0.35,1) both;\n}\n.zr0-cls-30 {\nanimation:zr0-ani-30 1s cubic-bezier(0.65,0,0.35,1) both;\n}\n.zr0-cls-31 {\nanimation:zr0-ani-31 1s cubic-bezier(0.65,0,0.35,1) both;\n}\n.zr0-cls-32 {\nanimation:zr0-ani-32 1s cubic-bezier(0.65,0,0.35,1) both;\n}\n.zr0-cls-33 {\nanimation:zr0-ani-33 1s cubic-bezier(0.65,0,0.35,1) both;\n}\n.zr0-cls-34 {\nanimation:zr0-ani-34 1s cubic-bezier(0.65,0,0.35,1) both;\n}\n.zr0-cls-35 {\nanimation:zr0-ani-35 1s cubic-bezier(0.65,0,0.35,1) both;\n}\n.zr0-cls-36 {\nanimation:zr0-ani-36 1s cubic-bezier(0.65,0,0.35,1) both;\n}\n.zr0-cls-37 {\nanimation:zr0-ani-37 1s cubic-bezier(0.65,0,0.35,1) both;\n}\n.zr0-cls-38 {\nanimation:zr0-ani-38 1s cubic-bezier(0.65,0,0.35,1) both;\n}\n.zr0-cls-39 {\nanimation:zr0-ani-39 1s cubic-bezier(0.65,0,0.35,1) both;\n}\n.zr0-cls-40 {\nanimation:zr0-ani-40 1s cubic-bezier(0.65,0,0.35,1) both;\n}\n.zr0-cls-41 {\nanimation:zr0-ani-41 1s cubic-bezier(0.65,0,0.35,1) both;\n}\n.zr0-cls-42 {\nanimation:zr0-ani-42 1s cubic-bezier(0.65,0,0.35,1) both;\n}\n.zr0-cls-43 {\nanimation:zr0-ani-43 1s cubic-bezier(0.65,0,0.35,1) both;\n}\n.zr0-cls-44 {\nanimation:zr0-ani-44 1s cubic-bezier(0.65,0,0.35,1) both;\n}\n.zr0-cls-45 {\nanimation:zr0-ani-45 1s cubic-bezier(0.65,0,0.35,1) both;\n}\n.zr0-cls-46 {\nanimation:zr0-ani-46 1s cubic-bezier(0.65,0,0.35,1) both;\n}\n.zr0-cls-47 {\nanimation:zr0-ani-47 1s cubic-bezier(0.65,0,0.35,1) both;\n}\n.zr0-cls-48 {\nanimation:zr0-ani-48 1s cubic-bezier(0.65,0,0.35,1) both;\n}\n.zr0-cls-49 {\nanimation:zr0-ani-49 1s cubic-bezier(0.65,0,0.35,1) both;\n}\n.zr0-cls-50 {\nanimation:zr0-ani-50 1s cubic-bezier(0.65,0,0.35,1) both;\n}\n.zr0-cls-51 {\nanimation:zr0-ani-51 1s cubic-bezier(0.65,0,0.35,1) both;\n}\n.zr0-cls-52 {\nanimation:zr0-ani-52 1s cubic-bezier(0.65,0,0.35,1) both;\n}\n.zr0-cls-53 {\nanimation:zr0-ani-53 1s cubic-bezier(0.65,0,0.35,1) both;\n}\n.zr0-cls-54 {\nanimation:zr0-ani-54 1s cubic-bezier(0.65,0,0.35,1) both;\n}\n.zr0-cls-55 {\nanimation:zr0-ani-55 1s cubic-bezier(0.65,0,0.35,1) both;\n}\n.zr0-cls-56 {\nanimation:zr0-ani-56 1s cubic-bezier(0.65,0,0.35,1) both;\n}\n.zr0-cls-57 {\nanimation:zr0-ani-57 1s cubic-bezier(0.65,0,0.35,1) both;\n}\n.zr0-cls-58 {\nanimation:zr0-ani-58 1s cubic-bezier(0.65,0,0.35,1) both;\n}\n.zr0-cls-59 {\nanimation:zr0-ani-59 1s cubic-bezier(0.65,0,0.35,1) both;\n}\n.zr0-cls-60 {\nanimation:zr0-ani-60 1s cubic-bezier(0.65,0,0.35,1) both;\n}\n.zr0-cls-61 {\nanimation:zr0-ani-61 1s cubic-bezier(0.65,0,0.35,1) both;\n}\n.zr0-cls-62 {\nanimation:zr0-ani-62 1s cubic-bezier(0.65,0,0.35,1) both;\n}\n@keyframes zr0-ani-0 {\n0% {\nd:path(&quot;M76.7 562l23.9 0l0 0l-23.9 0Z&quot;);\n}\n100% {\nd:path(&quot;M76.7 562l23.9 0l0 -89.2l-23.9 0Z&quot;);\n}\n}\n@keyframes zr0-ani-1 {\n0% {\nd:path(&quot;M190.8 562l23.9 0l0 0l-23.9 0Z&quot;);\n}\n100% {\nd:path(&quot;M190.8 562l23.9 0l0 -92.6l-23.9 0Z&quot;);\n}\n}\n@keyframes zr0-ani-2 {\n0% {\nd:path(&quot;M304.9 562l23.9 0l0 0l-23.9 0Z&quot;);\n}\n100% {\nd:path(&quot;M304.9 562l23.9 0l0 -83.9l-23.9 0Z&quot;);\n}\n}\n@keyframes zr0-ani-3 {\n0% {\nd:path(&quot;M419 562l23.9 0l0 0l-23.9 0Z&quot;);\n}\n100% {\nd:path(&quot;M419 562l23.9 0l0 -93.1l-23.9 0Z&quot;);\n}\n}\n@keyframes zr0-ani-4 {\n0% {\nd:path(&quot;M533.1 562l23.9 0l0 0l-23.9 0Z&quot;);\n}\n100% {\nd:path(&quot;M533.1 562l23.9 0l0 -108.8l-23.9 0Z&quot;);\n}\n}\n@keyframes zr0-ani-5 {\n0% {\nd:path(&quot;M647.2 562l23.9 0l0 0l-23.9 0Z&quot;);\n}\n100% {\nd:path(&quot;M647.2 562l23.9 0l0 -92l-23.9 0Z&quot;);\n}\n}\n@keyframes zr0-ani-6 {\n0% {\nd:path(&quot;M761.3 562l23.9 0l0 0l-23.9 0Z&quot;);\n}\n100% {\nd:path(&quot;M761.3 562l23.9 0l0 -89.2l-23.9 0Z&quot;);\n}\n}\n@keyframes zr0-ani-7 {\n0% {\nd:path(&quot;M105.4 562l23.9 0l0 0l-23.9 0Z&quot;);\n}\n100% {\nd:path(&quot;M105.4 562l23.9 0l0 -33.5l-23.9 0Z&quot;);\n}\n}\n@keyframes zr0-ani-8 {\n0% {\nd:path(&quot;M219.5 562l23.9 0l0 0l-23.9 0Z&quot;);\n}\n100% {\nd:path(&quot;M219.5 562l23.9 0l0 -36.8l-23.9 0Z&quot;);\n}\n}\n@keyframes zr0-ani-9 {\n0% {\nd:path(&quot;M333.6 562l23.9 0l0 0l-23.9 0Z&quot;);\n}\n100% {\nd:path(&quot;M333.6 562l23.9 0l0 -28.2l-23.9 0Z&quot;);\n}\n}\n@keyframes zr0-ani-10 {\n0% {\nd:path(&quot;M447.8 562l23.9 0l0 0l-23.9 0Z&quot;);\n}\n100% {\nd:path(&quot;M447.8 562l23.9 0l0 -37.4l-23.9 0Z&quot;);\n}\n}\n@keyframes zr0-ani-11 {\n0% {\nd:path(&quot;M561.9 562l23.9 0l0 0l-23.9 0Z&quot;);\n}\n100% {\nd:path(&quot;M561.9 562l23.9 0l0 -25.1l-23.9 0Z&quot;);\n}\n}\n@keyframes zr0-ani-12 {\n0% {\nd:path(&quot;M676 562l23.9 0l0 0l-23.9 0Z&quot;);\n}\n100% {\nd:path(&quot;M676 562l23.9 0l0 -64.1l-23.9 0Z&quot;);\n}\n}\n@keyframes zr0-ani-13 {\n0% {\nd:path(&quot;M790.1 562l23.9 0l0 0l-23.9 0Z&quot;);\n}\n100% {\nd:path(&quot;M790.1 562l23.9 0l0 -58.6l-23.9 0Z&quot;);\n}\n}\n@keyframes zr0-ani-14 {\n0% {\nd:path(&quot;M105.4 528.5l23.9 0l0 0l-23.9 0Z&quot;);\n}\n100% {\nd:path(&quot;M105.4 528.5l23.9 0l0 -61.4l-23.9 0Z&quot;);\n}\n}\n@keyframes zr0-ani-15 {\n0% {\nd:path(&quot;M219.5 525.2l23.9 0l0 0l-23.9 0Z&quot;);\n}\n100% {\nd:path(&quot;M219.5 525.2l23.9 0l0 -50.8l-23.9 0Z&quot;);\n}\n}\n@keyframes zr0-ani-16 {\n0% {\nd:path(&quot;M333.6 533.8l23.9 0l0 0l-23.9 0Z&quot;);\n}\n100% {\nd:path(&quot;M333.6 533.8l23.9 0l0 -53.3l-23.9 0Z&quot;);\n}\n}\n@keyframes zr0-ani-17 {\n0% {\nd:path(&quot;M447.8 524.6l23.9 0l0 0l-23.9 0Z&quot;);\n}\n100% {\nd:path(&quot;M447.8 524.6l23.9 0l0 -65.3l-23.9 0Z&quot;);\n}\n}\n@keyframes zr0-ani-18 {\n0% {\nd:path(&quot;M561.9 536.9l23.9 0l0 0l-23.9 0Z&quot;);\n}\n100% {\nd:path(&quot;M561.9 536.9l23.9 0l0 -80.9l-23.9 0Z&quot;);\n}\n}\n@keyframes zr0-ani-19 {\n0% {\nd:path(&quot;M676 497.9l23.9 0l0 0l-23.9 0Z&quot;);\n}\n100% {\nd:path(&quot;M676 497.9l23.9 0l0 -92l-23.9 0Z&quot;);\n}\n}\n@keyframes zr0-ani-20 {\n0% {\nd:path(&quot;M790.1 503.4l23.9 0l0 0l-23.9 0Z&quot;);\n}\n100% {\nd:path(&quot;M790.1 503.4l23.9 0l0 -86.5l-23.9 0Z&quot;);\n}\n}\n@keyframes zr0-ani-21 {\n0% {\nd:path(&quot;M105.4 467.2l23.9 0l0 0l-23.9 0Z&quot;);\n}\n100% {\nd:path(&quot;M105.4 467.2l23.9 0l0 -41.8l-23.9 0Z&quot;);\n}\n}\n@keyframes zr0-ani-22 {\n0% {\nd:path(&quot;M219.5 474.4l23.9 0l0 0l-23.9 0Z&quot;);\n}\n100% {\nd:path(&quot;M219.5 474.4l23.9 0l0 -64.7l-23.9 0Z&quot;);\n}\n}\n@keyframes zr0-ani-23 {\n0% {\nd:path(&quot;M333.6 480.6l23.9 0l0 0l-23.9 0Z&quot;);\n}\n100% {\nd:path(&quot;M333.6 480.6l23.9 0l0 -56.1l-23.9 0Z&quot;);\n}\n}\n@keyframes zr0-ani-24 {\n0% {\nd:path(&quot;M447.8 459.4l23.9 0l0 0l-23.9 0Z&quot;);\n}\n100% {\nd:path(&quot;M447.8 459.4l23.9 0l0 -42.9l-23.9 0Z&quot;);\n}\n}\n@keyframes zr0-ani-25 {\n0% {\nd:path(&quot;M561.9 456l23.9 0l0 0l-23.9 0Z&quot;);\n}\n100% {\nd:path(&quot;M561.9 456l23.9 0l0 -53l-23.9 0Z&quot;);\n}\n}\n@keyframes zr0-ani-26 {\n0% {\nd:path(&quot;M676 405.8l23.9 0l0 0l-23.9 0Z&quot;);\n}\n100% {\nd:path(&quot;M676 405.8l23.9 0l0 -92l-23.9 0Z&quot;);\n}\n}\n@keyframes zr0-ani-27 {\n0% {\nd:path(&quot;M790.1 417l23.9 0l0 0l-23.9 0Z&quot;);\n}\n100% {\nd:path(&quot;M790.1 417l23.9 0l0 -114.3l-23.9 0Z&quot;);\n}\n}\n@keyframes zr0-ani-28 {\n0% {\nd:path(&quot;M134.2 562l23.9 0l0 0l-23.9 0Z&quot;);\n}\n100% {\nd:path(&quot;M134.2 562l23.9 0l0 -240.4l-23.9 0Z&quot;);\n}\n}\n@keyframes zr0-ani-29 {\n0% {\nd:path(&quot;M248.3 562l23.9 0l0 0l-23.9 0Z&quot;);\n}\n100% {\nd:path(&quot;M248.3 562l23.9 0l0 -283.9l-23.9 0Z&quot;);\n}\n}\n@keyframes zr0-ani-30 {\n0% {\nd:path(&quot;M362.4 562l23.9 0l0 0l-23.9 0Z&quot;);\n}\n100% {\nd:path(&quot;M362.4 562l23.9 0l0 -268.8l-23.9 0Z&quot;);\n}\n}\n@keyframes zr0-ani-31 {\n0% {\nd:path(&quot;M476.5 562l23.9 0l0 0l-23.9 0Z&quot;);\n}\n100% {\nd:path(&quot;M476.5 562l23.9 0l0 -286.1l-23.9 0Z&quot;);\n}\n}\n@keyframes zr0-ani-32 {\n0% {\nd:path(&quot;M590.6 562l23.9 0l0 0l-23.9 0Z&quot;);\n}\n100% {\nd:path(&quot;M590.6 562l23.9 0l0 -468.3l-23.9 0Z&quot;);\n}\n}\n@keyframes zr0-ani-33 {\n0% {\nd:path(&quot;M704.7 562l23.9 0l0 0l-23.9 0Z&quot;);\n}\n100% {\nd:path(&quot;M704.7 562l23.9 0l0 -446.2l-23.9 0Z&quot;);\n}\n}\n@keyframes zr0-ani-34 {\n0% {\nd:path(&quot;M818.8 562l23.9 0l0 0l-23.9 0Z&quot;);\n}\n100% {\nd:path(&quot;M818.8 562l23.9 0l0 -437.9l-23.9 0Z&quot;);\n}\n}\n@keyframes zr0-ani-35 {\n0% {\nd:path(&quot;M162.9 562l5 0l0 0l-5 0Z&quot;);\n}\n100% {\nd:path(&quot;M162.9 562l5 0l0 -172.9l-5 0Z&quot;);\n}\n}\n@keyframes zr0-ani-36 {\n0% {\nd:path(&quot;M277 562l5 0l0 0l-5 0Z&quot;);\n}\n100% {\nd:path(&quot;M277 562l5 0l0 -204.1l-5 0Z&quot;);\n}\n}\n@keyframes zr0-ani-37 {\n0% {\nd:path(&quot;M391.1 562l5 0l0 0l-5 0Z&quot;);\n}\n100% {\nd:path(&quot;M391.1 562l5 0l0 -195.5l-5 0Z&quot;);\n}\n}\n@keyframes zr0-ani-38 {\n0% {\nd:path(&quot;M505.2 562l5 0l0 0l-5 0Z&quot;);\n}\n100% {\nd:path(&quot;M505.2 562l5 0l0 -204.7l-5 0Z&quot;);\n}\n}\n@keyframes zr0-ani-39 {\n0% {\nd:path(&quot;M619.3 562l5 0l0 0l-5 0Z&quot;);\n}\n100% {\nd:path(&quot;M619.3 562l5 0l0 -304l-5 0Z&quot;);\n}\n}\n@keyframes zr0-ani-40 {\n0% {\nd:path(&quot;M733.4 562l5 0l0 0l-5 0Z&quot;);\n}\n100% {\nd:path(&quot;M733.4 562l5 0l0 -315.1l-5 0Z&quot;);\n}\n}\n@keyframes zr0-ani-41 {\n0% {\nd:path(&quot;M847.6 562l5 0l0 0l-5 0Z&quot;);\n}\n100% {\nd:path(&quot;M847.6 562l5 0l0 -312.4l-5 0Z&quot;);\n}\n}\n@keyframes zr0-ani-42 {\n0% {\nd:path(&quot;M162.9 389.1l5 0l0 0l-5 0Z&quot;);\n}\n100% {\nd:path(&quot;M162.9 389.1l5 0l0 -33.5l-5 0Z&quot;);\n}\n}\n@keyframes zr0-ani-43 {\n0% {\nd:path(&quot;M277 357.9l5 0l0 0l-5 0Z&quot;);\n}\n100% {\nd:path(&quot;M277 357.9l5 0l0 -36.8l-5 0Z&quot;);\n}\n}\n@keyframes zr0-ani-44 {\n0% {\nd:path(&quot;M391.1 366.5l5 0l0 0l-5 0Z&quot;);\n}\n100% {\nd:path(&quot;M391.1 366.5l5 0l0 -28.2l-5 0Z&quot;);\n}\n}\n@keyframes zr0-ani-45 {\n0% {\nd:path(&quot;M505.2 357.3l5 0l0 0l-5 0Z&quot;);\n}\n100% {\nd:path(&quot;M505.2 357.3l5 0l0 -37.4l-5 0Z&quot;);\n}\n}\n@keyframes zr0-ani-46 {\n0% {\nd:path(&quot;M619.3 258l5 0l0 0l-5 0Z&quot;);\n}\n100% {\nd:path(&quot;M619.3 258l5 0l0 -80.9l-5 0Z&quot;);\n}\n}\n@keyframes zr0-ani-47 {\n0% {\nd:path(&quot;M733.4 246.9l5 0l0 0l-5 0Z&quot;);\n}\n100% {\nd:path(&quot;M733.4 246.9l5 0l0 -64.1l-5 0Z&quot;);\n}\n}\n@keyframes zr0-ani-48 {\n0% {\nd:path(&quot;M847.6 249.6l5 0l0 0l-5 0Z&quot;);\n}\n100% {\nd:path(&quot;M847.6 249.6l5 0l0 -61.4l-5 0Z&quot;);\n}\n}\n@keyframes zr0-ani-49 {\n0% {\nd:path(&quot;M162.9 355.6l5 0l0 0l-5 0Z&quot;);\n}\n100% {\nd:path(&quot;M162.9 355.6l5 0l0 -16.7l-5 0Z&quot;);\n}\n}\n@keyframes zr0-ani-50 {\n0% {\nd:path(&quot;M277 321l5 0l0 0l-5 0Z&quot;);\n}\n100% {\nd:path(&quot;M277 321l5 0l0 -20.1l-5 0Z&quot;);\n}\n}\n@keyframes zr0-ani-51 {\n0% {\nd:path(&quot;M391.1 338.3l5 0l0 0l-5 0Z&quot;);\n}\n100% {\nd:path(&quot;M391.1 338.3l5 0l0 -19.8l-5 0Z&quot;);\n}\n}\n@keyframes zr0-ani-52 {\n0% {\nd:path(&quot;M505.2 319.9l5 0l0 0l-5 0Z&quot;);\n}\n100% {\nd:path(&quot;M505.2 319.9l5 0l0 -20.6l-5 0Z&quot;);\n}\n}\n@keyframes zr0-ani-53 {\n0% {\nd:path(&quot;M619.3 177.1l5 0l0 0l-5 0Z&quot;);\n}\n100% {\nd:path(&quot;M619.3 177.1l5 0l0 -53l-5 0Z&quot;);\n}\n}\n@keyframes zr0-ani-54 {\n0% {\nd:path(&quot;M733.4 182.7l5 0l0 0l-5 0Z&quot;);\n}\n100% {\nd:path(&quot;M733.4 182.7l5 0l0 -36.3l-5 0Z&quot;);\n}\n}\n@keyframes zr0-ani-55 {\n0% {\nd:path(&quot;M847.6 188.3l5 0l0 0l-5 0Z&quot;);\n}\n100% {\nd:path(&quot;M847.6 188.3l5 0l0 -30.7l-5 0Z&quot;);\n}\n}\n@keyframes zr0-ani-56 {\n0% {\nd:path(&quot;M162.9 338.9l5 0l0 0l-5 0Z&quot;);\n}\n100% {\nd:path(&quot;M162.9 338.9l5 0l0 -17.3l-5 0Z&quot;);\n}\n}\n@keyframes zr0-ani-57 {\n0% {\nd:path(&quot;M277 301l5 0l0 0l-5 0Z&quot;);\n}\n100% {\nd:path(&quot;M277 301l5 0l0 -22.9l-5 0Z&quot;);\n}\n}\n@keyframes zr0-ani-58 {\n0% {\nd:path(&quot;M391.1 318.5l5 0l0 0l-5 0Z&quot;);\n}\n100% {\nd:path(&quot;M391.1 318.5l5 0l0 -25.4l-5 0Z&quot;);\n}\n}\n@keyframes zr0-ani-59 {\n0% {\nd:path(&quot;M505.2 299.3l5 0l0 0l-5 0Z&quot;);\n}\n100% {\nd:path(&quot;M505.2 299.3l5 0l0 -23.4l-5 0Z&quot;);\n}\n}\n@keyframes zr0-ani-60 {\n0% {\nd:path(&quot;M619.3 124.1l5 0l0 0l-5 0Z&quot;);\n}\n100% {\nd:path(&quot;M619.3 124.1l5 0l0 -30.4l-5 0Z&quot;);\n}\n}\n@keyframes zr0-ani-61 {\n0% {\nd:path(&quot;M733.4 146.5l5 0l0 0l-5 0Z&quot;);\n}\n100% {\nd:path(&quot;M733.4 146.5l5 0l0 -30.7l-5 0Z&quot;);\n}\n}\n@keyframes zr0-ani-62 {\n0% {\nd:path(&quot;M847.6 157.6l5 0l0 0l-5 0Z&quot;);\n}\n100% {\nd:path(&quot;M847.6 157.6l5 0l0 -33.5l-5 0Z&quot;);\n}\n}\n]]&gt;\n\n</style>\n</svg>